<?xml version="1.0" encoding="utf-8" standalone="no"?>
<!DOCTYPE svg PUBLIC "-//W3C//DTD SVG 1.1//EN"
  "http://www.w3.org/Graphics/SVG/1.1/DTD/svg11.dtd">
<svg xmlns:xlink="http://www.w3.org/1999/xlink" width="510.638516pt" height="451.387578pt" viewBox="0 0 510.638516 451.387578" xmlns="http://www.w3.org/2000/svg" version="1.1">
 <metadata>
  <rdf:RDF xmlns:dc="http://purl.org/dc/elements/1.1/" xmlns:cc="http://creativecommons.org/ns#" xmlns:rdf="http://www.w3.org/1999/02/22-rdf-syntax-ns#">
   <cc:Work>
    <dc:type rdf:resource="http://purl.org/dc/dcmitype/StillImage"/>
    <dc:date>2026-05-30T00:45:23.625112</dc:date>
    <dc:format>image/svg+xml</dc:format>
    <dc:creator>
     <cc:Agent>
      <dc:title>Matplotlib v3.8.4, https://matplotlib.org/</dc:title>
     </cc:Agent>
    </dc:creator>
   </cc:Work>
  </rdf:RDF>
 </metadata>
 <defs>
  <style type="text/css">*{stroke-linejoin: round; stroke-linecap: butt}</style>
 </defs>
 <g id="figure_1">
  <g id="patch_1">
   <path d="M 0 451.387578 
L 510.638516 451.387578 
L 510.638516 -0 
L 0 -0 
z
" style="fill: #ffffff"/>
  </g>
  <g id="axes_1">
   <g id="patch_2">
    <path d="M 74.113906 226.601715 
L 250.324433 226.601715 
L 250.324433 58.68 
L 74.113906 58.68 
z
" style="fill: #ffffff"/>
   </g>
   <g id="line2d_1">
    <path d="M 114.548177 205.665513 
L 95.637025 192.23991 
" clip-path="url(#p59c1e2b4c5)" style="fill: none; stroke-dasharray: 2.59,1.12; stroke-dashoffset: 0; stroke: #4d4d4d; stroke-opacity: 0.65; stroke-width: 0.7"/>
   </g>
   <g id="line2d_2">
    <path d="M 85.734319 140.384703 
L 183.384478 69.219434 
" clip-path="url(#p59c1e2b4c5)" style="fill: none; stroke-dasharray: 2.59,1.12; stroke-dashoffset: 0; stroke: #4d4d4d; stroke-opacity: 0.65; stroke-width: 0.7"/>
   </g>
   <g id="line2d_3">
    <path d="M 100.160605 89.072781 
L 238.23655 110.427858 
" clip-path="url(#p59c1e2b4c5)" style="fill: none; stroke-dasharray: 2.59,1.12; stroke-dashoffset: 0; stroke: #4d4d4d; stroke-opacity: 0.65; stroke-width: 0.7"/>
   </g>
   <g id="line2d_4">
    <path d="M 214.213736 80.067624 
L 141.347913 66.523319 
" clip-path="url(#p59c1e2b4c5)" style="fill: none; stroke-dasharray: 2.59,1.12; stroke-dashoffset: 0; stroke: #4d4d4d; stroke-opacity: 0.65; stroke-width: 0.7"/>
   </g>
   <g id="line2d_5">
    <path d="M 83.696311 161.889452 
L 82.549863 122.568215 
" clip-path="url(#p59c1e2b4c5)" style="fill: none; stroke-dasharray: 2.59,1.12; stroke-dashoffset: 0; stroke: #4d4d4d; stroke-opacity: 0.65; stroke-width: 0.7"/>
   </g>
   <g id="line2d_6">
    <path d="M 147.19912 218.96891 
L 124.111874 205.164914 
" clip-path="url(#p59c1e2b4c5)" style="fill: none; stroke-dasharray: 2.59,1.12; stroke-dashoffset: 0; stroke: #4d4d4d; stroke-opacity: 0.65; stroke-width: 0.7"/>
   </g>
   <g id="matplotlib.axis_1"/>
   <g id="matplotlib.axis_2"/>
   <g id="PathCollection_1">
    <path d="M 158.73954 69.270845 
C 159.524022 69.270845 160.276478 68.959167 160.831191 68.404455 
C 161.385903 67.849743 161.69758 67.097287 161.69758 66.312805 
C 161.69758 65.528324 161.385903 64.775867 160.831191 64.221155 
C 160.276478 63.666443 159.524022 63.354765 158.73954 63.354765 
C 157.955059 63.354765 157.202602 63.666443 156.64789 64.221155 
C 156.093178 64.775867 155.781501 65.528324 155.781501 66.312805 
C 155.781501 67.097287 156.093178 67.849743 156.64789 68.404455 
C 157.202602 68.959167 157.955059 69.270845 158.73954 69.270845 
z
" clip-path="url(#p59c1e2b4c5)" style="fill: #0f4d92; fill-opacity: 0.9; stroke: #ffffff; stroke-opacity: 0.9; stroke-width: 0.3"/>
    <path d="M 227.872304 108.50615 
C 228.656786 108.50615 229.409242 108.194473 229.963954 107.639761 
C 230.518666 107.085048 230.830344 106.332592 230.830344 105.54811 
C 230.830344 104.763629 230.518666 104.011172 229.963954 103.45646 
C 229.409242 102.901748 228.656786 102.590071 227.872304 102.590071 
C 227.087823 102.590071 226.335366 102.901748 225.780654 103.45646 
C 225.225942 104.011172 224.914264 104.763629 224.914264 105.54811 
C 224.914264 106.332592 225.225942 107.085048 225.780654 107.639761 
C 226.335366 108.194473 227.087823 108.50615 227.872304 108.50615 
z
" clip-path="url(#p59c1e2b4c5)" style="fill: #0f4d92; fill-opacity: 0.9; stroke: #ffffff; stroke-opacity: 0.9; stroke-width: 0.3"/>
    <path d="M 114.548177 208.623553 
C 115.332659 208.623553 116.085115 208.311875 116.639827 207.757163 
C 117.19454 207.202451 117.506217 206.449994 117.506217 205.665513 
C 117.506217 204.881031 117.19454 204.128575 116.639827 203.573863 
C 116.085115 203.01915 115.332659 202.707473 114.548177 202.707473 
C 113.763696 202.707473 113.011239 203.01915 112.456527 203.573863 
C 111.901815 204.128575 111.590137 204.881031 111.590137 205.665513 
C 111.590137 206.449994 111.901815 207.202451 112.456527 207.757163 
C 113.011239 208.311875 113.763696 208.623553 114.548177 208.623553 
z
" clip-path="url(#p59c1e2b4c5)" style="fill: #0f4d92; fill-opacity: 0.9; stroke: #ffffff; stroke-opacity: 0.9; stroke-width: 0.3"/>
    <path d="M 91.185029 105.58 
C 91.96951 105.58 92.721967 105.268323 93.276679 104.713611 
C 93.831391 104.158899 94.143069 103.406442 94.143069 102.621961 
C 94.143069 101.837479 93.831391 101.085023 93.276679 100.530311 
C 92.721967 99.975598 91.96951 99.663921 91.185029 99.663921 
C 90.400547 99.663921 89.648091 99.975598 89.093379 100.530311 
C 88.538667 101.085023 88.226989 101.837479 88.226989 102.621961 
C 88.226989 103.406442 88.538667 104.158899 89.093379 104.713611 
C 89.648091 105.268323 90.400547 105.58 91.185029 105.58 
z
" clip-path="url(#p59c1e2b4c5)" style="fill: #0f4d92; fill-opacity: 0.9; stroke: #ffffff; stroke-opacity: 0.9; stroke-width: 0.3"/>
    <path d="M 193.012746 80.487832 
C 193.797227 80.487832 194.549684 80.176155 195.104396 79.621442 
C 195.659108 79.06673 195.970786 78.314274 195.970786 77.529792 
C 195.970786 76.745311 195.659108 75.992854 195.104396 75.438142 
C 194.549684 74.88343 193.797227 74.571753 193.012746 74.571753 
C 192.228265 74.571753 191.475808 74.88343 190.921096 75.438142 
C 190.366384 75.992854 190.054706 76.745311 190.054706 77.529792 
C 190.054706 78.314274 190.366384 79.06673 190.921096 79.621442 
C 191.475808 80.176155 192.228265 80.487832 193.012746 80.487832 
z
" clip-path="url(#p59c1e2b4c5)" style="fill: #0f4d92; fill-opacity: 0.9; stroke: #ffffff; stroke-opacity: 0.9; stroke-width: 0.3"/>
    <path d="M 107.803547 83.475679 
C 108.588029 83.475679 109.340485 83.164001 109.895197 82.609289 
C 110.44991 82.054577 110.761587 81.30212 110.761587 80.517639 
C 110.761587 79.733158 110.44991 78.980701 109.895197 78.425989 
C 109.340485 77.871277 108.588029 77.559599 107.803547 77.559599 
C 107.019066 77.559599 106.266609 77.871277 105.711897 78.425989 
C 105.157185 78.980701 104.845507 79.733158 104.845507 80.517639 
C 104.845507 81.30212 105.157185 82.054577 105.711897 82.609289 
C 106.266609 83.164001 107.019066 83.475679 107.803547 83.475679 
z
" clip-path="url(#p59c1e2b4c5)" style="fill: #0f4d92; fill-opacity: 0.9; stroke: #ffffff; stroke-opacity: 0.9; stroke-width: 0.3"/>
    <path d="M 227.559432 192.057874 
C 228.343913 192.057874 229.09637 191.746196 229.651082 191.191484 
C 230.205794 190.636772 230.517472 189.884315 230.517472 189.099834 
C 230.517472 188.315353 230.205794 187.562896 229.651082 187.008184 
C 229.09637 186.453472 228.343913 186.141794 227.559432 186.141794 
C 226.774951 186.141794 226.022494 186.453472 225.467782 187.008184 
C 224.91307 187.562896 224.601392 188.315353 224.601392 189.099834 
C 224.601392 189.884315 224.91307 190.636772 225.467782 191.191484 
C 226.022494 191.746196 226.774951 192.057874 227.559432 192.057874 
z
" clip-path="url(#p59c1e2b4c5)" style="fill: #0f4d92; fill-opacity: 0.9; stroke: #ffffff; stroke-opacity: 0.9; stroke-width: 0.3"/>
    <path d="M 106.315295 200.655894 
C 107.099777 200.655894 107.852233 200.344217 108.406945 199.789505 
C 108.961657 199.234793 109.273335 198.482336 109.273335 197.697855 
C 109.273335 196.913373 108.961657 196.160917 108.406945 195.606205 
C 107.852233 195.051492 107.099777 194.739815 106.315295 194.739815 
C 105.530814 194.739815 104.778357 195.051492 104.223645 195.606205 
C 103.668933 196.160917 103.357255 196.913373 103.357255 197.697855 
C 103.357255 198.482336 103.668933 199.234793 104.223645 199.789505 
C 104.778357 200.344217 105.530814 200.655894 106.315295 200.655894 
z
" clip-path="url(#p59c1e2b4c5)" style="fill: #0f4d92; fill-opacity: 0.9; stroke: #ffffff; stroke-opacity: 0.9; stroke-width: 0.3"/>
    <path d="M 120.555226 93.965794 
C 121.339707 93.965794 122.092164 93.654117 122.646876 93.099405 
C 123.201588 92.544692 123.513266 91.792236 123.513266 91.007755 
C 123.513266 90.223273 123.201588 89.470817 122.646876 88.916104 
C 122.092164 88.361392 121.339707 88.049715 120.555226 88.049715 
C 119.770745 88.049715 119.018288 88.361392 118.463576 88.916104 
C 117.908864 89.470817 117.597186 90.223273 117.597186 91.007755 
C 117.597186 91.792236 117.908864 92.544692 118.463576 93.099405 
C 119.018288 93.654117 119.770745 93.965794 120.555226 93.965794 
z
" clip-path="url(#p59c1e2b4c5)" style="fill: #0f4d92; fill-opacity: 0.9; stroke: #ffffff; stroke-opacity: 0.9; stroke-width: 0.3"/>
    <path d="M 184.724982 213.372353 
C 185.509463 213.372353 186.26192 213.060676 186.816632 212.505964 
C 187.371344 211.951251 187.683022 211.198795 187.683022 210.414314 
C 187.683022 209.629832 187.371344 208.877376 186.816632 208.322663 
C 186.26192 207.767951 185.509463 207.456274 184.724982 207.456274 
C 183.9405 207.456274 183.188044 207.767951 182.633332 208.322663 
C 182.07862 208.877376 181.766942 209.629832 181.766942 210.414314 
C 181.766942 211.198795 182.07862 211.951251 182.633332 212.505964 
C 183.188044 213.060676 183.9405 213.372353 184.724982 213.372353 
z
" clip-path="url(#p59c1e2b4c5)" style="fill: #0f4d92; fill-opacity: 0.9; stroke: #ffffff; stroke-opacity: 0.9; stroke-width: 0.3"/>
    <path d="M 194.83353 215.120089 
C 195.618011 215.120089 196.370468 214.808411 196.92518 214.253699 
C 197.479892 213.698987 197.791569 212.94653 197.791569 212.162049 
C 197.791569 211.377567 197.479892 210.625111 196.92518 210.070399 
C 196.370468 209.515687 195.618011 209.204009 194.83353 209.204009 
C 194.049048 209.204009 193.296592 209.515687 192.74188 210.070399 
C 192.187167 210.625111 191.87549 211.377567 191.87549 212.162049 
C 191.87549 212.94653 192.187167 213.698987 192.74188 214.253699 
C 193.296592 214.808411 194.049048 215.120089 194.83353 215.120089 
z
" clip-path="url(#p59c1e2b4c5)" style="fill: #0f4d92; fill-opacity: 0.9; stroke: #ffffff; stroke-opacity: 0.9; stroke-width: 0.3"/>
    <path d="M 91.711069 171.135341 
C 92.49555 171.135341 93.248007 170.823663 93.802719 170.268951 
C 94.357431 169.714239 94.669109 168.961782 94.669109 168.177301 
C 94.669109 167.392819 94.357431 166.640363 93.802719 166.085651 
C 93.248007 165.530939 92.49555 165.219261 91.711069 165.219261 
C 90.926588 165.219261 90.174131 165.530939 89.619419 166.085651 
C 89.064707 166.640363 88.753029 167.392819 88.753029 168.177301 
C 88.753029 168.961782 89.064707 169.714239 89.619419 170.268951 
C 90.174131 170.823663 90.926588 171.135341 91.711069 171.135341 
z
" clip-path="url(#p59c1e2b4c5)" style="fill: #0f4d92; fill-opacity: 0.9; stroke: #ffffff; stroke-opacity: 0.9; stroke-width: 0.3"/>
    <path d="M 169.108615 73.334963 
C 169.893096 73.334963 170.645553 73.023286 171.200265 72.468573 
C 171.754977 71.913861 172.066655 71.161405 172.066655 70.376923 
C 172.066655 69.592442 171.754977 68.839985 171.200265 68.285273 
C 170.645553 67.730561 169.893096 67.418883 169.108615 67.418883 
C 168.324134 67.418883 167.571677 67.730561 167.016965 68.285273 
C 166.462253 68.839985 166.150575 69.592442 166.150575 70.376923 
C 166.150575 71.161405 166.462253 71.913861 167.016965 72.468573 
C 167.571677 73.023286 168.324134 73.334963 169.108615 73.334963 
z
" clip-path="url(#p59c1e2b4c5)" style="fill: #0f4d92; fill-opacity: 0.9; stroke: #ffffff; stroke-opacity: 0.9; stroke-width: 0.3"/>
    <path d="M 85.734319 143.342743 
C 86.5188 143.342743 87.271256 143.031065 87.825969 142.476353 
C 88.380681 141.921641 88.692358 141.169184 88.692358 140.384703 
C 88.692358 139.600221 88.380681 138.847765 87.825969 138.293053 
C 87.271256 137.738341 86.5188 137.426663 85.734319 137.426663 
C 84.949837 137.426663 84.197381 137.738341 83.642668 138.293053 
C 83.087956 138.847765 82.776279 139.600221 82.776279 140.384703 
C 82.776279 141.169184 83.087956 141.921641 83.642668 142.476353 
C 84.197381 143.031065 84.949837 143.342743 85.734319 143.342743 
z
" clip-path="url(#p59c1e2b4c5)" style="fill: #0f4d92; fill-opacity: 0.9; stroke: #ffffff; stroke-opacity: 0.9; stroke-width: 0.3"/>
    <path d="M 179.391718 221.921405 
C 180.176199 221.921405 180.928656 221.609728 181.483368 221.055015 
C 182.03808 220.500303 182.349758 219.747847 182.349758 218.963365 
C 182.349758 218.178884 182.03808 217.426427 181.483368 216.871715 
C 180.928656 216.317003 180.176199 216.005326 179.391718 216.005326 
C 178.607236 216.005326 177.85478 216.317003 177.300068 216.871715 
C 176.745356 217.426427 176.433678 218.178884 176.433678 218.963365 
C 176.433678 219.747847 176.745356 220.500303 177.300068 221.055015 
C 177.85478 221.609728 178.607236 221.921405 179.391718 221.921405 
z
" clip-path="url(#p59c1e2b4c5)" style="fill: #0f4d92; fill-opacity: 0.9; stroke: #ffffff; stroke-opacity: 0.9; stroke-width: 0.3"/>
    <path d="M 210.844166 204.53148 
C 211.628648 204.53148 212.381104 204.219802 212.935816 203.66509 
C 213.490528 203.110378 213.802206 202.357921 213.802206 201.57344 
C 213.802206 200.788958 213.490528 200.036502 212.935816 199.48179 
C 212.381104 198.927078 211.628648 198.6154 210.844166 198.6154 
C 210.059685 198.6154 209.307228 198.927078 208.752516 199.48179 
C 208.197804 200.036502 207.886126 200.788958 207.886126 201.57344 
C 207.886126 202.357921 208.197804 203.110378 208.752516 203.66509 
C 209.307228 204.219802 210.059685 204.53148 210.844166 204.53148 
z
" clip-path="url(#p59c1e2b4c5)" style="fill: #0f4d92; fill-opacity: 0.9; stroke: #ffffff; stroke-opacity: 0.9; stroke-width: 0.3"/>
    <path d="M 119.437802 77.423339 
C 120.222284 77.423339 120.97474 77.111661 121.529452 76.556949 
C 122.084165 76.002237 122.395842 75.249781 122.395842 74.465299 
C 122.395842 73.680818 122.084165 72.928361 121.529452 72.373649 
C 120.97474 71.818937 120.222284 71.507259 119.437802 71.507259 
C 118.653321 71.507259 117.900864 71.818937 117.346152 72.373649 
C 116.79144 72.928361 116.479763 73.680818 116.479763 74.465299 
C 116.479763 75.249781 116.79144 76.002237 117.346152 76.556949 
C 117.900864 77.111661 118.653321 77.423339 119.437802 77.423339 
z
" clip-path="url(#p59c1e2b4c5)" style="fill: #0f4d92; fill-opacity: 0.9; stroke: #ffffff; stroke-opacity: 0.9; stroke-width: 0.3"/>
    <path d="M 228.809869 97.626094 
C 229.59435 97.626094 230.346807 97.314416 230.901519 96.759704 
C 231.456231 96.204992 231.767909 95.452535 231.767909 94.668054 
C 231.767909 93.883572 231.456231 93.131116 230.901519 92.576404 
C 230.346807 92.021692 229.59435 91.710014 228.809869 91.710014 
C 228.025388 91.710014 227.272931 92.021692 226.718219 92.576404 
C 226.163507 93.131116 225.851829 93.883572 225.851829 94.668054 
C 225.851829 95.452535 226.163507 96.204992 226.718219 96.759704 
C 227.272931 97.314416 228.025388 97.626094 228.809869 97.626094 
z
" clip-path="url(#p59c1e2b4c5)" style="fill: #0f4d92; fill-opacity: 0.9; stroke: #ffffff; stroke-opacity: 0.9; stroke-width: 0.3"/>
    <path d="M 130.131011 216.475241 
C 130.915492 216.475241 131.667949 216.163563 132.222661 215.608851 
C 132.777373 215.054139 133.089051 214.301683 133.089051 213.517201 
C 133.089051 212.73272 132.777373 211.980263 132.222661 211.425551 
C 131.667949 210.870839 130.915492 210.559161 130.131011 210.559161 
C 129.34653 210.559161 128.594073 210.870839 128.039361 211.425551 
C 127.484649 211.980263 127.172971 212.73272 127.172971 213.517201 
C 127.172971 214.301683 127.484649 215.054139 128.039361 215.608851 
C 128.594073 216.163563 129.34653 216.475241 130.131011 216.475241 
z
" clip-path="url(#p59c1e2b4c5)" style="fill: #0f4d92; fill-opacity: 0.9; stroke: #ffffff; stroke-opacity: 0.9; stroke-width: 0.3"/>
    <path d="M 227.250999 182.358716 
C 228.03548 182.358716 228.787937 182.047038 229.342649 181.492326 
C 229.897361 180.937614 230.209039 180.185157 230.209039 179.400676 
C 230.209039 178.616194 229.897361 177.863738 229.342649 177.309026 
C 228.787937 176.754314 228.03548 176.442636 227.250999 176.442636 
C 226.466518 176.442636 225.714061 176.754314 225.159349 177.309026 
C 224.604637 177.863738 224.292959 178.616194 224.292959 179.400676 
C 224.292959 180.185157 224.604637 180.937614 225.159349 181.492326 
C 225.714061 182.047038 226.466518 182.358716 227.250999 182.358716 
z
" clip-path="url(#p59c1e2b4c5)" style="fill: #0f4d92; fill-opacity: 0.9; stroke: #ffffff; stroke-opacity: 0.9; stroke-width: 0.3"/>
    <path d="M 84.301447 154.285098 
C 85.085928 154.285098 85.838385 153.97342 86.393097 153.418708 
C 86.947809 152.863996 87.259487 152.111539 87.259487 151.327058 
C 87.259487 150.542576 86.947809 149.79012 86.393097 149.235408 
C 85.838385 148.680695 85.085928 148.369018 84.301447 148.369018 
C 83.516965 148.369018 82.764509 148.680695 82.209797 149.235408 
C 81.655085 149.79012 81.343407 150.542576 81.343407 151.327058 
C 81.343407 152.111539 81.655085 152.863996 82.209797 153.418708 
C 82.764509 153.97342 83.516965 154.285098 84.301447 154.285098 
z
" clip-path="url(#p59c1e2b4c5)" style="fill: #0f4d92; fill-opacity: 0.9; stroke: #ffffff; stroke-opacity: 0.9; stroke-width: 0.3"/>
    <path d="M 100.160605 92.030821 
C 100.945086 92.030821 101.697543 91.719143 102.252255 91.164431 
C 102.806967 90.609719 103.118644 89.857262 103.118644 89.072781 
C 103.118644 88.2883 102.806967 87.535843 102.252255 86.981131 
C 101.697543 86.426419 100.945086 86.114741 100.160605 86.114741 
C 99.376123 86.114741 98.623667 86.426419 98.068954 86.981131 
C 97.514242 87.535843 97.202565 88.2883 97.202565 89.072781 
C 97.202565 89.857262 97.514242 90.609719 98.068954 91.164431 
C 98.623667 91.719143 99.376123 92.030821 100.160605 92.030821 
z
" clip-path="url(#p59c1e2b4c5)" style="fill: #0f4d92; fill-opacity: 0.9; stroke: #ffffff; stroke-opacity: 0.9; stroke-width: 0.3"/>
    <path d="M 148.542642 76.296497 
C 149.327123 76.296497 150.07958 75.984819 150.634292 75.430107 
C 151.189004 74.875395 151.500682 74.122938 151.500682 73.338457 
C 151.500682 72.553975 151.189004 71.801519 150.634292 71.246807 
C 150.07958 70.692095 149.327123 70.380417 148.542642 70.380417 
C 147.758161 70.380417 147.005704 70.692095 146.450992 71.246807 
C 145.89628 71.801519 145.584602 72.553975 145.584602 73.338457 
C 145.584602 74.122938 145.89628 74.875395 146.450992 75.430107 
C 147.005704 75.984819 147.758161 76.296497 148.542642 76.296497 
z
" clip-path="url(#p59c1e2b4c5)" style="fill: #0f4d92; fill-opacity: 0.9; stroke: #ffffff; stroke-opacity: 0.9; stroke-width: 0.3"/>
    <path d="M 178.367684 82.840194 
C 179.152166 82.840194 179.904622 82.528516 180.459334 81.973804 
C 181.014046 81.419092 181.325724 80.666636 181.325724 79.882154 
C 181.325724 79.097673 181.014046 78.345216 180.459334 77.790504 
C 179.904622 77.235792 179.152166 76.924114 178.367684 76.924114 
C 177.583203 76.924114 176.830746 77.235792 176.276034 77.790504 
C 175.721322 78.345216 175.409644 79.097673 175.409644 79.882154 
C 175.409644 80.666636 175.721322 81.419092 176.276034 81.973804 
C 176.830746 82.528516 177.583203 82.840194 178.367684 82.840194 
z
" clip-path="url(#p59c1e2b4c5)" style="fill: #0f4d92; fill-opacity: 0.9; stroke: #ffffff; stroke-opacity: 0.9; stroke-width: 0.3"/>
    <path d="M 168.518647 220.078486 
C 169.303128 220.078486 170.055585 219.766808 170.610297 219.212096 
C 171.165009 218.657384 171.476687 217.904928 171.476687 217.120446 
C 171.476687 216.335965 171.165009 215.583508 170.610297 215.028796 
C 170.055585 214.474084 169.303128 214.162406 168.518647 214.162406 
C 167.734166 214.162406 166.981709 214.474084 166.426997 215.028796 
C 165.872285 215.583508 165.560607 216.335965 165.560607 217.120446 
C 165.560607 217.904928 165.872285 218.657384 166.426997 219.212096 
C 166.981709 219.766808 167.734166 220.078486 168.518647 220.078486 
z
" clip-path="url(#p59c1e2b4c5)" style="fill: #0f4d92; fill-opacity: 0.9; stroke: #ffffff; stroke-opacity: 0.9; stroke-width: 0.3"/>
    <path d="M 238.23655 112.36435 
C 238.750114 112.36435 239.242712 112.160309 239.605857 111.797165 
C 239.969001 111.43402 240.173042 110.941422 240.173042 110.427858 
C 240.173042 109.914295 239.969001 109.421696 239.605857 109.058552 
C 239.242712 108.695408 238.750114 108.491367 238.23655 108.491367 
C 237.722987 108.491367 237.230388 108.695408 236.867244 109.058552 
C 236.5041 109.421696 236.300059 109.914295 236.300059 110.427858 
C 236.300059 110.941422 236.5041 111.43402 236.867244 111.797165 
C 237.230388 112.160309 237.722987 112.36435 238.23655 112.36435 
z
" clip-path="url(#p59c1e2b4c5)" style="fill: #0f4d92; fill-opacity: 0.9; stroke: #ffffff; stroke-opacity: 0.9; stroke-width: 0.3"/>
    <path d="M 214.213736 83.025664 
C 214.998217 83.025664 215.750674 82.713986 216.305386 82.159274 
C 216.860098 81.604562 217.171776 80.852105 217.171776 80.067624 
C 217.171776 79.283142 216.860098 78.530686 216.305386 77.975974 
C 215.750674 77.421262 214.998217 77.109584 214.213736 77.109584 
C 213.429255 77.109584 212.676798 77.421262 212.122086 77.975974 
C 211.567374 78.530686 211.255696 79.283142 211.255696 80.067624 
C 211.255696 80.852105 211.567374 81.604562 212.122086 82.159274 
C 212.676798 82.713986 213.429255 83.025664 214.213736 83.025664 
z
" clip-path="url(#p59c1e2b4c5)" style="fill: #0f4d92; fill-opacity: 0.9; stroke: #ffffff; stroke-opacity: 0.9; stroke-width: 0.3"/>
    <path d="M 183.384478 71.155926 
C 183.898041 71.155926 184.39064 70.951885 184.753784 70.58874 
C 185.116929 70.225596 185.32097 69.732998 185.32097 69.219434 
C 185.32097 68.70587 185.116929 68.213272 184.753784 67.850128 
C 184.39064 67.486983 183.898041 67.282942 183.384478 67.282942 
C 182.870914 67.282942 182.378316 67.486983 182.015171 67.850128 
C 181.652027 68.213272 181.447986 68.70587 181.447986 69.219434 
C 181.447986 69.732998 181.652027 70.225596 182.015171 70.58874 
C 182.378316 70.951885 182.870914 71.155926 183.384478 71.155926 
z
" clip-path="url(#p59c1e2b4c5)" style="fill: #0f4d92; fill-opacity: 0.9; stroke: #ffffff; stroke-opacity: 0.9; stroke-width: 0.3"/>
    <path d="M 89.963976 182.043213 
C 90.748458 182.043213 91.500914 181.731536 92.055626 181.176824 
C 92.610339 180.622111 92.922016 179.869655 92.922016 179.085173 
C 92.922016 178.300692 92.610339 177.548235 92.055626 176.993523 
C 91.500914 176.438811 90.748458 176.127134 89.963976 176.127134 
C 89.179495 176.127134 88.427038 176.438811 87.872326 176.993523 
C 87.317614 177.548235 87.005937 178.300692 87.005937 179.085173 
C 87.005937 179.869655 87.317614 180.622111 87.872326 181.176824 
C 88.427038 181.731536 89.179495 182.043213 89.963976 182.043213 
z
" clip-path="url(#p59c1e2b4c5)" style="fill: #0f4d92; fill-opacity: 0.9; stroke: #ffffff; stroke-opacity: 0.9; stroke-width: 0.3"/>
    <path d="M 83.696311 164.847492 
C 84.480792 164.847492 85.233249 164.535814 85.787961 163.981102 
C 86.342673 163.42639 86.654351 162.673933 86.654351 161.889452 
C 86.654351 161.10497 86.342673 160.352514 85.787961 159.797802 
C 85.233249 159.24309 84.480792 158.931412 83.696311 158.931412 
C 82.911829 158.931412 82.159373 159.24309 81.604661 159.797802 
C 81.049949 160.352514 80.738271 161.10497 80.738271 161.889452 
C 80.738271 162.673933 81.049949 163.42639 81.604661 163.981102 
C 82.159373 164.535814 82.911829 164.847492 83.696311 164.847492 
z
" clip-path="url(#p59c1e2b4c5)" style="fill: #0f4d92; fill-opacity: 0.9; stroke: #ffffff; stroke-opacity: 0.9; stroke-width: 0.3"/>
    <path d="M 140.827371 215.574174 
C 141.611853 215.574174 142.364309 215.262496 142.919021 214.707784 
C 143.473733 214.153072 143.785411 213.400615 143.785411 212.616134 
C 143.785411 211.831652 143.473733 211.079196 142.919021 210.524484 
C 142.364309 209.969772 141.611853 209.658094 140.827371 209.658094 
C 140.04289 209.658094 139.290433 209.969772 138.735721 210.524484 
C 138.181009 211.079196 137.869331 211.831652 137.869331 212.616134 
C 137.869331 213.400615 138.181009 214.153072 138.735721 214.707784 
C 139.290433 215.262496 140.04289 215.574174 140.827371 215.574174 
z
" clip-path="url(#p59c1e2b4c5)" style="fill: #0f4d92; fill-opacity: 0.9; stroke: #ffffff; stroke-opacity: 0.9; stroke-width: 0.3"/>
    <path d="M 238.189419 167.993549 
C 238.973901 167.993549 239.726357 167.681871 240.281069 167.127159 
C 240.835781 166.572447 241.147459 165.81999 241.147459 165.035509 
C 241.147459 164.251028 240.835781 163.498571 240.281069 162.943859 
C 239.726357 162.389147 238.973901 162.077469 238.189419 162.077469 
C 237.404938 162.077469 236.652481 162.389147 236.097769 162.943859 
C 235.543057 163.498571 235.231379 164.251028 235.231379 165.035509 
C 235.231379 165.81999 235.543057 166.572447 236.097769 167.127159 
C 236.652481 167.681871 237.404938 167.993549 238.189419 167.993549 
z
" clip-path="url(#p59c1e2b4c5)" style="fill: #0f4d92; fill-opacity: 0.9; stroke: #ffffff; stroke-opacity: 0.9; stroke-width: 0.3"/>
    <path d="M 101.223829 105.720792 
C 102.00831 105.720792 102.760767 105.409114 103.315479 104.854402 
C 103.870191 104.29969 104.181869 103.547233 104.181869 102.762752 
C 104.181869 101.978271 103.870191 101.225814 103.315479 100.671102 
C 102.760767 100.11639 102.00831 99.804712 101.223829 99.804712 
C 100.439347 99.804712 99.686891 100.11639 99.132179 100.671102 
C 98.577467 101.225814 98.265789 101.978271 98.265789 102.762752 
C 98.265789 103.547233 98.577467 104.29969 99.132179 104.854402 
C 99.686891 105.409114 100.439347 105.720792 101.223829 105.720792 
z
" clip-path="url(#p59c1e2b4c5)" style="fill: #0f4d92; fill-opacity: 0.9; stroke: #ffffff; stroke-opacity: 0.9; stroke-width: 0.3"/>
    <path d="M 130.857593 76.537538 
C 131.642075 76.537538 132.394531 76.22586 132.949244 75.671148 
C 133.503956 75.116436 133.815633 74.36398 133.815633 73.579498 
C 133.815633 72.795017 133.503956 72.04256 132.949244 71.487848 
C 132.394531 70.933136 131.642075 70.621458 130.857593 70.621458 
C 130.073112 70.621458 129.320655 70.933136 128.765943 71.487848 
C 128.211231 72.04256 127.899554 72.795017 127.899554 73.579498 
C 127.899554 74.36398 128.211231 75.116436 128.765943 75.671148 
C 129.320655 76.22586 130.073112 76.537538 130.857593 76.537538 
z
" clip-path="url(#p59c1e2b4c5)" style="fill: #0f4d92; fill-opacity: 0.9; stroke: #ffffff; stroke-opacity: 0.9; stroke-width: 0.3"/>
    <path d="M 141.347913 68.45981 
C 141.861477 68.45981 142.354075 68.255769 142.71722 67.892625 
C 143.080364 67.529481 143.284405 67.036882 143.284405 66.523319 
C 143.284405 66.009755 143.080364 65.517157 142.71722 65.154012 
C 142.354075 64.790868 141.861477 64.586827 141.347913 64.586827 
C 140.83435 64.586827 140.341751 64.790868 139.978607 65.154012 
C 139.615462 65.517157 139.411421 66.009755 139.411421 66.523319 
C 139.411421 67.036882 139.615462 67.529481 139.978607 67.892625 
C 140.341751 68.255769 140.83435 68.45981 141.347913 68.45981 
z
" clip-path="url(#p59c1e2b4c5)" style="fill: #0f4d92; fill-opacity: 0.9; stroke: #ffffff; stroke-opacity: 0.9; stroke-width: 0.3"/>
    <path d="M 219.845936 199.517231 
C 220.630418 199.517231 221.382874 199.205553 221.937586 198.650841 
C 222.492299 198.096129 222.803976 197.343672 222.803976 196.559191 
C 222.803976 195.77471 222.492299 195.022253 221.937586 194.467541 
C 221.382874 193.912829 220.630418 193.601151 219.845936 193.601151 
C 219.061455 193.601151 218.308998 193.912829 217.754286 194.467541 
C 217.199574 195.022253 216.887897 195.77471 216.887897 196.559191 
C 216.887897 197.343672 217.199574 198.096129 217.754286 198.650841 
C 218.308998 199.205553 219.061455 199.517231 219.845936 199.517231 
z
" clip-path="url(#p59c1e2b4c5)" style="fill: #0f4d92; fill-opacity: 0.9; stroke: #ffffff; stroke-opacity: 0.9; stroke-width: 0.3"/>
    <path d="M 82.549863 124.504707 
C 83.063427 124.504707 83.556025 124.300666 83.91917 123.937521 
C 84.282314 123.574377 84.486355 123.081779 84.486355 122.568215 
C 84.486355 122.054651 84.282314 121.562053 83.91917 121.198909 
C 83.556025 120.835764 83.063427 120.631723 82.549863 120.631723 
C 82.0363 120.631723 81.543701 120.835764 81.180557 121.198909 
C 80.817413 121.562053 80.613372 122.054651 80.613372 122.568215 
C 80.613372 123.081779 80.817413 123.574377 81.180557 123.937521 
C 81.543701 124.300666 82.0363 124.504707 82.549863 124.504707 
z
" clip-path="url(#p59c1e2b4c5)" style="fill: #0f4d92; fill-opacity: 0.9; stroke: #ffffff; stroke-opacity: 0.9; stroke-width: 0.3"/>
    <path d="M 203.461708 83.552149 
C 204.24619 83.552149 204.998646 83.240471 205.553358 82.685759 
C 206.108071 82.131047 206.419748 81.37859 206.419748 80.594109 
C 206.419748 79.809627 206.108071 79.057171 205.553358 78.502459 
C 204.998646 77.947747 204.24619 77.636069 203.461708 77.636069 
C 202.677227 77.636069 201.92477 77.947747 201.370058 78.502459 
C 200.815346 79.057171 200.503668 79.809627 200.503668 80.594109 
C 200.503668 81.37859 200.815346 82.131047 201.370058 82.685759 
C 201.92477 83.240471 202.677227 83.552149 203.461708 83.552149 
z
" clip-path="url(#p59c1e2b4c5)" style="fill: #0f4d92; fill-opacity: 0.9; stroke: #ffffff; stroke-opacity: 0.9; stroke-width: 0.3"/>
    <path d="M 205.665769 213.050044 
C 206.450251 213.050044 207.202707 212.738366 207.757419 212.183654 
C 208.312131 211.628942 208.623809 210.876485 208.623809 210.092004 
C 208.623809 209.307523 208.312131 208.555066 207.757419 208.000354 
C 207.202707 207.445642 206.450251 207.133964 205.665769 207.133964 
C 204.881288 207.133964 204.128831 207.445642 203.574119 208.000354 
C 203.019407 208.555066 202.707729 209.307523 202.707729 210.092004 
C 202.707729 210.876485 203.019407 211.628942 203.574119 212.183654 
C 204.128831 212.738366 204.881288 213.050044 205.665769 213.050044 
z
" clip-path="url(#p59c1e2b4c5)" style="fill: #0f4d92; fill-opacity: 0.9; stroke: #ffffff; stroke-opacity: 0.9; stroke-width: 0.3"/>
    <path d="M 158.307719 223.193909 
C 159.493743 223.193909 160.63135 222.722697 161.469996 221.884051 
C 162.308642 221.045405 162.779855 219.907797 162.779855 218.721773 
C 162.779855 217.535749 162.308642 216.398141 161.469996 215.559495 
C 160.63135 214.72085 159.493743 214.249637 158.307719 214.249637 
C 157.121694 214.249637 155.984087 214.72085 155.145441 215.559495 
C 154.306795 216.398141 153.835583 217.535749 153.835583 218.721773 
C 153.835583 219.907797 154.306795 221.045405 155.145441 221.884051 
C 155.984087 222.722697 157.121694 223.193909 158.307719 223.193909 
z
" clip-path="url(#p59c1e2b4c5)" style="fill: #0f4d92; fill-opacity: 0.9; stroke: #ffffff; stroke-opacity: 0.9; stroke-width: 0.3"/>
    <path d="M 238.653892 123.831785 
C 239.438373 123.831785 240.19083 123.520108 240.745542 122.965395 
C 241.300254 122.410683 241.611931 121.658227 241.611931 120.873745 
C 241.611931 120.089264 241.300254 119.336807 240.745542 118.782095 
C 240.19083 118.227383 239.438373 117.915706 238.653892 117.915706 
C 237.86941 117.915706 237.116954 118.227383 236.562242 118.782095 
C 236.007529 119.336807 235.695852 120.089264 235.695852 120.873745 
C 235.695852 121.658227 236.007529 122.410683 236.562242 122.965395 
C 237.116954 123.520108 237.86941 123.831785 238.653892 123.831785 
z
" clip-path="url(#p59c1e2b4c5)" style="fill: #0f4d92; fill-opacity: 0.9; stroke: #ffffff; stroke-opacity: 0.9; stroke-width: 0.3"/>
    <path d="M 147.19912 221.926949 
C 147.983601 221.926949 148.736058 221.615272 149.29077 221.06056 
C 149.845482 220.505848 150.15716 219.753391 150.15716 218.96891 
C 150.15716 218.184428 149.845482 217.431972 149.29077 216.87726 
C 148.736058 216.322547 147.983601 216.01087 147.19912 216.01087 
C 146.414639 216.01087 145.662182 216.322547 145.10747 216.87726 
C 144.552758 217.431972 144.24108 218.184428 144.24108 218.96891 
C 144.24108 219.753391 144.552758 220.505848 145.10747 221.06056 
C 145.662182 221.615272 146.414639 221.926949 147.19912 221.926949 
z
" clip-path="url(#p59c1e2b4c5)" style="fill: #0f4d92; fill-opacity: 0.9; stroke: #ffffff; stroke-opacity: 0.9; stroke-width: 0.3"/>
    <path d="M 124.111874 207.101405 
C 124.625438 207.101405 125.118036 206.897364 125.481181 206.53422 
C 125.844325 206.171076 126.048366 205.678477 126.048366 205.164914 
C 126.048366 204.65135 125.844325 204.158751 125.481181 203.795607 
C 125.118036 203.432463 124.625438 203.228422 124.111874 203.228422 
C 123.598311 203.228422 123.105712 203.432463 122.742568 203.795607 
C 122.379424 204.158751 122.175383 204.65135 122.175383 205.164914 
C 122.175383 205.678477 122.379424 206.171076 122.742568 206.53422 
C 123.105712 206.897364 123.598311 207.101405 124.111874 207.101405 
z
" clip-path="url(#p59c1e2b4c5)" style="fill: #0f4d92; fill-opacity: 0.9; stroke: #ffffff; stroke-opacity: 0.9; stroke-width: 0.3"/>
    <path d="M 216.643851 95.301299 
C 217.552921 95.301299 218.424881 94.940122 219.067691 94.297312 
C 219.710501 93.654502 220.071678 92.782543 220.071678 91.873472 
C 220.071678 90.964402 219.710501 90.092442 219.067691 89.449632 
C 218.424881 88.806822 217.552921 88.445645 216.643851 88.445645 
C 215.73478 88.445645 214.862821 88.806822 214.220011 89.449632 
C 213.577201 90.092442 213.216024 90.964402 213.216024 91.873472 
C 213.216024 92.782543 213.577201 93.654502 214.220011 94.297312 
C 214.862821 94.940122 215.73478 95.301299 216.643851 95.301299 
z
" clip-path="url(#p59c1e2b4c5)" style="fill: #0f4d92; fill-opacity: 0.9; stroke: #ffffff; stroke-opacity: 0.9; stroke-width: 0.3"/>
    <path d="M 242.314863 146.89035 
C 243.099345 146.89035 243.851801 146.578673 244.406513 146.023961 
C 244.961225 145.469249 245.272903 144.716792 245.272903 143.932311 
C 245.272903 143.147829 244.961225 142.395373 244.406513 141.84066 
C 243.851801 141.285948 243.099345 140.974271 242.314863 140.974271 
C 241.530382 140.974271 240.777925 141.285948 240.223213 141.84066 
C 239.668501 142.395373 239.356823 143.147829 239.356823 143.932311 
C 239.356823 144.716792 239.668501 145.469249 240.223213 146.023961 
C 240.777925 146.578673 241.530382 146.89035 242.314863 146.89035 
z
" clip-path="url(#p59c1e2b4c5)" style="fill: #0f4d92; fill-opacity: 0.9; stroke: #ffffff; stroke-opacity: 0.9; stroke-width: 0.3"/>
    <path d="M 88.533667 118.724016 
C 89.719691 118.724016 90.857299 118.252804 91.695944 117.414158 
C 92.53459 116.575512 93.005803 115.437905 93.005803 114.25188 
C 93.005803 113.065856 92.53459 111.928249 91.695944 111.089603 
C 90.857299 110.250957 89.719691 109.779744 88.533667 109.779744 
C 87.347642 109.779744 86.210035 110.250957 85.371389 111.089603 
C 84.532743 111.928249 84.061531 113.065856 84.061531 114.25188 
C 84.061531 115.437905 84.532743 116.575512 85.371389 117.414158 
C 86.210035 118.252804 87.347642 118.724016 88.533667 118.724016 
z
" clip-path="url(#p59c1e2b4c5)" style="fill: #0f4d92; fill-opacity: 0.9; stroke: #ffffff; stroke-opacity: 0.9; stroke-width: 0.3"/>
    <path d="M 238.310334 133.888909 
C 239.174791 133.888909 240.003958 133.545456 240.615221 132.934193 
C 241.226483 132.322931 241.569936 131.493764 241.569936 130.629307 
C 241.569936 129.764851 241.226483 128.935684 240.615221 128.324421 
C 240.003958 127.713158 239.174791 127.369706 238.310334 127.369706 
C 237.445878 127.369706 236.616711 127.713158 236.005448 128.324421 
C 235.394185 128.935684 235.050733 129.764851 235.050733 130.629307 
C 235.050733 131.493764 235.394185 132.322931 236.005448 132.934193 
C 236.616711 133.545456 237.445878 133.888909 238.310334 133.888909 
z
" clip-path="url(#p59c1e2b4c5)" style="fill: #0f4d92; fill-opacity: 0.9; stroke: #ffffff; stroke-opacity: 0.9; stroke-width: 0.3"/>
    <path d="M 238.410543 158.52452 
C 239.274999 158.52452 240.104166 158.181068 240.715429 157.569805 
C 241.326692 156.958542 241.670144 156.129375 241.670144 155.264919 
C 241.670144 154.400462 241.326692 153.571295 240.715429 152.960032 
C 240.104166 152.34877 239.274999 152.005317 238.410543 152.005317 
C 237.546086 152.005317 236.71692 152.34877 236.105657 152.960032 
C 235.494394 153.571295 235.150942 154.400462 235.150942 155.264919 
C 235.150942 156.129375 235.494394 156.958542 236.105657 157.569805 
C 236.71692 158.181068 237.546086 158.52452 238.410543 158.52452 
z
" clip-path="url(#p59c1e2b4c5)" style="fill: #0f4d92; fill-opacity: 0.9; stroke: #ffffff; stroke-opacity: 0.9; stroke-width: 0.3"/>
    <path d="M 233.502545 144.652651 
C 234.367002 144.652651 235.196169 144.309199 235.807432 143.697936 
C 236.418694 143.086673 236.762147 142.257506 236.762147 141.39305 
C 236.762147 140.528594 236.418694 139.699427 235.807432 139.088164 
C 235.196169 138.476901 234.367002 138.133449 233.502545 138.133449 
C 232.638089 138.133449 231.808922 138.476901 231.197659 139.088164 
C 230.586396 139.699427 230.242944 140.528594 230.242944 141.39305 
C 230.242944 142.257506 230.586396 143.086673 231.197659 143.697936 
C 231.808922 144.309199 232.638089 144.652651 233.502545 144.652651 
z
" clip-path="url(#p59c1e2b4c5)" style="fill: #0f4d92; fill-opacity: 0.9; stroke: #ffffff; stroke-opacity: 0.9; stroke-width: 0.3"/>
    <path d="M 95.637025 194.611618 
C 96.26601 194.611618 96.869317 194.36172 97.314076 193.916961 
C 97.758835 193.472202 98.008734 192.868894 98.008734 192.23991 
C 98.008734 191.610925 97.758835 191.007618 97.314076 190.562859 
C 96.869317 190.1181 96.26601 189.868201 95.637025 189.868201 
C 95.008041 189.868201 94.404733 190.1181 93.959974 190.562859 
C 93.515215 191.007618 93.265317 191.610925 93.265317 192.23991 
C 93.265317 192.868894 93.515215 193.472202 93.959974 193.916961 
C 94.404733 194.36172 95.008041 194.611618 95.637025 194.611618 
z
" clip-path="url(#p59c1e2b4c5)" style="fill: #0f4d92; fill-opacity: 0.9; stroke: #ffffff; stroke-opacity: 0.9; stroke-width: 0.3"/>
    <path d="M 82.123476 136.20956 
C 82.987932 136.20956 83.817099 135.866108 84.428362 135.254845 
C 85.039625 134.643582 85.383077 133.814415 85.383077 132.949959 
C 85.383077 132.085503 85.039625 131.256336 84.428362 130.645073 
C 83.817099 130.03381 82.987932 129.690358 82.123476 129.690358 
C 81.259019 129.690358 80.429852 130.03381 79.81859 130.645073 
C 79.207327 131.256336 78.863874 132.085503 78.863874 132.949959 
C 78.863874 133.814415 79.207327 134.643582 79.81859 135.254845 
C 80.429852 135.866108 81.259019 136.20956 82.123476 136.20956 
z
" clip-path="url(#p59c1e2b4c5)" style="fill: #0f4d92; fill-opacity: 0.9; stroke: #ffffff; stroke-opacity: 0.9; stroke-width: 0.3"/>
    <path d="M 104.772393 185.849363 
C 105.63685 185.849363 106.466016 185.505911 107.077279 184.894648 
C 107.688542 184.283385 108.031994 183.454218 108.031994 182.589762 
C 108.031994 181.725305 107.688542 180.896138 107.077279 180.284876 
C 106.466016 179.673613 105.63685 179.33016 104.772393 179.33016 
C 103.907937 179.33016 103.07877 179.673613 102.467507 180.284876 
C 101.856244 180.896138 101.512792 181.725305 101.512792 182.589762 
C 101.512792 183.454218 101.856244 184.283385 102.467507 184.894648 
C 103.07877 185.505911 103.907937 185.849363 104.772393 185.849363 
z
" clip-path="url(#p59c1e2b4c5)" style="fill: #0f4d92; fill-opacity: 0.9; stroke: #ffffff; stroke-opacity: 0.9; stroke-width: 0.3"/>
    <path d="M 237.013942 178.757806 
C 237.878399 178.757806 238.707566 178.414354 239.318828 177.803091 
C 239.930091 177.191828 240.273544 176.362661 240.273544 175.498205 
C 240.273544 174.633748 239.930091 173.804581 239.318828 173.193318 
C 238.707566 172.582056 237.878399 172.238603 237.013942 172.238603 
C 236.149486 172.238603 235.320319 172.582056 234.709056 173.193318 
C 234.097793 173.804581 233.754341 174.633748 233.754341 175.498205 
C 233.754341 176.362661 234.097793 177.191828 234.709056 177.803091 
C 235.320319 178.414354 236.149486 178.757806 237.013942 178.757806 
z
" clip-path="url(#p59c1e2b4c5)" style="fill: #0f4d92; fill-opacity: 0.9; stroke: #ffffff; stroke-opacity: 0.9; stroke-width: 0.3"/>
   </g>
   <g id="PathCollection_2">
    <path d="M 114.548177 211.142738 
C 116.000755 211.142738 117.394034 210.565623 118.421161 209.538496 
C 119.448288 208.511369 120.025403 207.11809 120.025403 205.665513 
C 120.025403 204.212935 119.448288 202.819656 118.421161 201.792529 
C 117.394034 200.765402 116.000755 200.188287 114.548177 200.188287 
C 113.0956 200.188287 111.702321 200.765402 110.675194 201.792529 
C 109.648067 202.819656 109.070952 204.212935 109.070952 205.665513 
C 109.070952 207.11809 109.648067 208.511369 110.675194 209.538496 
C 111.702321 210.565623 113.0956 211.142738 114.548177 211.142738 
L 114.548177 211.142738 
z
" clip-path="url(#p59c1e2b4c5)" style="fill: none; stroke: #ffd700; stroke-width: 1.5"/>
   </g>
   <g id="text_1">
    <text style="fill: #ffd700; font: 700 5.5px 'Microsoft YaHei', 'SimHei', 'Arial', 'DejaVu Sans', 'Liberation Sans', sans-serif; text-anchor: middle" x="114.548177" y="193.665513" transform="rotate(-0 114.548177 193.665513)">Source</text>
   </g>
   <g id="text_2">
    <text style="font: 700 10px 'Microsoft YaHei', 'SimHei', 'Arial', 'DejaVu Sans', 'Liberation Sans', sans-serif; text-anchor: start" x="60.017064" y="52.835628" transform="rotate(-0 60.017064 52.835628)">a</text>
   </g>
   <g id="text_3">
    <text style="font: 700 7px 'Microsoft YaHei', 'SimHei', 'Arial', 'DejaVu Sans', 'Liberation Sans', sans-serif; text-anchor: middle" x="162.219169" y="54.68" transform="rotate(-0 162.219169 54.68)">Propagation graph (53 nodes, 6 edges)</text>
   </g>
   <g id="legend_1">
    <g id="PathCollection_3">
     <defs>
      <path id="m2925625101" d="M 0 2.067607 
C 0.548336 2.067607 1.074287 1.849751 1.462019 1.462019 
C 1.849751 1.074287 2.067607 0.548336 2.067607 0 
C 2.067607 -0.548336 1.849751 -1.074287 1.462019 -1.462019 
C 1.074287 -1.849751 0.548336 -2.067607 0 -2.067607 
C -0.548336 -2.067607 -1.074287 -1.849751 -1.462019 -1.462019 
C -1.849751 -1.074287 -2.067607 -0.548336 -2.067607 0 
C -2.067607 0.548336 -1.849751 1.074287 -1.462019 1.462019 
C -1.074287 1.849751 -0.548336 2.067607 0 2.067607 
z
" style="stroke: #ffffff; stroke-opacity: 0.9; stroke-width: 0.3"/>
     </defs>
     <g>
      <use xlink:href="#m2925625101" x="223.861933" y="65.864375" style="fill: #0f4d92; fill-opacity: 0.9; stroke: #ffffff; stroke-opacity: 0.9; stroke-width: 0.3"/>
     </g>
    </g>
    <g id="text_4">
     <text style="font: 5px 'Microsoft YaHei', 'SimHei', 'Arial', 'DejaVu Sans', 'Liberation Sans', sans-serif; text-anchor: start" x="231.361933" y="67.176875" transform="rotate(-0 231.361933 67.176875)">weibo</text>
    </g>
   </g>
  </g>
  <g id="axes_2">
   <g id="patch_3">
    <path d="M 299.66338 226.601715 
L 475.873906 226.601715 
L 475.873906 58.68 
L 299.66338 58.68 
z
" style="fill: #ffffff"/>
   </g>
   <g id="PolyCollection_1">
    <defs>
     <path id="mcd460bbe0e" d="M 307.672949 -320.270348 
L 307.672949 -287.756506 
L 467.864337 -287.756506 
L 467.864337 -349.677639 
L 467.864337 -349.677639 
L 307.672949 -320.270348 
z
" style="stroke: #b64342; stroke-opacity: 0.08"/>
    </defs>
    <g clip-path="url(#p3e7cc472c0)">
     <use xlink:href="#mcd460bbe0e" x="0" y="451.387578" style="fill: #b64342; fill-opacity: 0.08; stroke: #b64342; stroke-opacity: 0.08"/>
    </g>
   </g>
   <g id="matplotlib.axis_3">
    <g id="xtick_1">
     <g id="line2d_7">
      <defs>
       <path id="md46b49483e" d="M 0 0 
L 0 3.5 
" style="stroke: #000000; stroke-width: 0.8"/>
      </defs>
      <g>
       <use xlink:href="#md46b49483e" x="307.672949" y="226.601715" style="stroke: #000000; stroke-width: 0.8"/>
      </g>
     </g>
     <g id="text_5">
      <text style="font: 6.5px 'Microsoft YaHei', 'SimHei', 'Arial', 'DejaVu Sans', 'Liberation Sans', sans-serif; text-anchor: middle" x="307.672949" y="238.797652" transform="rotate(-0 307.672949 238.797652)">0</text>
     </g>
    </g>
    <g id="xtick_2">
     <g id="line2d_8">
      <g>
       <use xlink:href="#md46b49483e" x="467.864337" y="226.601715" style="stroke: #000000; stroke-width: 0.8"/>
      </g>
     </g>
     <g id="text_6">
      <text style="font: 6.5px 'Microsoft YaHei', 'SimHei', 'Arial', 'DejaVu Sans', 'Liberation Sans', sans-serif; text-anchor: middle" x="467.864337" y="238.797652" transform="rotate(-0 467.864337 238.797652)">1</text>
     </g>
    </g>
    <g id="text_7">
     <text style="font: 7px 'Microsoft YaHei', 'SimHei', 'Arial', 'DejaVu Sans', 'Liberation Sans', sans-serif; text-anchor: middle" x="387.768643" y="250.009137" transform="rotate(-0 387.768643 250.009137)">Propagation depth (BFS level)</text>
    </g>
   </g>
   <g id="matplotlib.axis_4">
    <g id="ytick_1">
     <g id="line2d_9">
      <defs>
       <path id="md805c38b9d" d="M 0 0 
L -3.5 0 
" style="stroke: #b64342; stroke-width: 0.8"/>
      </defs>
      <g>
       <use xlink:href="#md805c38b9d" x="299.66338" y="226.601715" style="fill: #b64342; stroke: #b64342; stroke-width: 0.8"/>
      </g>
     </g>
     <g id="text_8">
      <text style="fill: #b64342; font: 6.5px 'Microsoft YaHei', 'SimHei', 'Arial', 'DejaVu Sans', 'Liberation Sans', sans-serif; text-anchor: end" x="292.66338" y="229.199684" transform="rotate(-0 292.66338 229.199684)">−0.6</text>
     </g>
    </g>
    <g id="ytick_2">
     <g id="line2d_10">
      <g>
       <use xlink:href="#md805c38b9d" x="299.66338" y="205.6115" style="fill: #b64342; stroke: #b64342; stroke-width: 0.8"/>
      </g>
     </g>
     <g id="text_9">
      <text style="fill: #b64342; font: 6.5px 'Microsoft YaHei', 'SimHei', 'Arial', 'DejaVu Sans', 'Liberation Sans', sans-serif; text-anchor: end" x="292.66338" y="208.209469" transform="rotate(-0 292.66338 208.209469)">−0.4</text>
     </g>
    </g>
    <g id="ytick_3">
     <g id="line2d_11">
      <g>
       <use xlink:href="#md805c38b9d" x="299.66338" y="184.621286" style="fill: #b64342; stroke: #b64342; stroke-width: 0.8"/>
      </g>
     </g>
     <g id="text_10">
      <text style="fill: #b64342; font: 6.5px 'Microsoft YaHei', 'SimHei', 'Arial', 'DejaVu Sans', 'Liberation Sans', sans-serif; text-anchor: end" x="292.66338" y="187.219255" transform="rotate(-0 292.66338 187.219255)">−0.2</text>
     </g>
    </g>
    <g id="ytick_4">
     <g id="line2d_12">
      <g>
       <use xlink:href="#md805c38b9d" x="299.66338" y="163.631072" style="fill: #b64342; stroke: #b64342; stroke-width: 0.8"/>
      </g>
     </g>
     <g id="text_11">
      <text style="fill: #b64342; font: 6.5px 'Microsoft YaHei', 'SimHei', 'Arial', 'DejaVu Sans', 'Liberation Sans', sans-serif; text-anchor: end" x="292.66338" y="166.229041" transform="rotate(-0 292.66338 166.229041)">0.0</text>
     </g>
    </g>
    <g id="ytick_5">
     <g id="line2d_13">
      <g>
       <use xlink:href="#md805c38b9d" x="299.66338" y="142.640857" style="fill: #b64342; stroke: #b64342; stroke-width: 0.8"/>
      </g>
     </g>
     <g id="text_12">
      <text style="fill: #b64342; font: 6.5px 'Microsoft YaHei', 'SimHei', 'Arial', 'DejaVu Sans', 'Liberation Sans', sans-serif; text-anchor: end" x="292.66338" y="145.238826" transform="rotate(-0 292.66338 145.238826)">0.2</text>
     </g>
    </g>
    <g id="ytick_6">
     <g id="line2d_14">
      <g>
       <use xlink:href="#md805c38b9d" x="299.66338" y="121.650643" style="fill: #b64342; stroke: #b64342; stroke-width: 0.8"/>
      </g>
     </g>
     <g id="text_13">
      <text style="fill: #b64342; font: 6.5px 'Microsoft YaHei', 'SimHei', 'Arial', 'DejaVu Sans', 'Liberation Sans', sans-serif; text-anchor: end" x="292.66338" y="124.248612" transform="rotate(-0 292.66338 124.248612)">0.4</text>
     </g>
    </g>
    <g id="ytick_7">
     <g id="line2d_15">
      <g>
       <use xlink:href="#md805c38b9d" x="299.66338" y="100.660429" style="fill: #b64342; stroke: #b64342; stroke-width: 0.8"/>
      </g>
     </g>
     <g id="text_14">
      <text style="fill: #b64342; font: 6.5px 'Microsoft YaHei', 'SimHei', 'Arial', 'DejaVu Sans', 'Liberation Sans', sans-serif; text-anchor: end" x="292.66338" y="103.258397" transform="rotate(-0 292.66338 103.258397)">0.6</text>
     </g>
    </g>
    <g id="ytick_8">
     <g id="line2d_16">
      <g>
       <use xlink:href="#md805c38b9d" x="299.66338" y="79.670214" style="fill: #b64342; stroke: #b64342; stroke-width: 0.8"/>
      </g>
     </g>
     <g id="text_15">
      <text style="fill: #b64342; font: 6.5px 'Microsoft YaHei', 'SimHei', 'Arial', 'DejaVu Sans', 'Liberation Sans', sans-serif; text-anchor: end" x="292.66338" y="82.268183" transform="rotate(-0 292.66338 82.268183)">0.8</text>
     </g>
    </g>
    <g id="ytick_9">
     <g id="line2d_17">
      <g>
       <use xlink:href="#md805c38b9d" x="299.66338" y="58.68" style="fill: #b64342; stroke: #b64342; stroke-width: 0.8"/>
      </g>
     </g>
     <g id="text_16">
      <text style="fill: #b64342; font: 6.5px 'Microsoft YaHei', 'SimHei', 'Arial', 'DejaVu Sans', 'Liberation Sans', sans-serif; text-anchor: end" x="292.66338" y="61.277969" transform="rotate(-0 292.66338 61.277969)">1.0</text>
     </g>
    </g>
    <g id="text_17">
     <text style="fill: #b64342; font: 7px 'Microsoft YaHei', 'SimHei', 'Arial', 'DejaVu Sans', 'Liberation Sans', sans-serif; text-anchor: middle" x="272.873224" y="142.640857" transform="rotate(-90 272.873224 142.640857)">Sentiment polarity</text>
    </g>
   </g>
   <g id="patch_4">
    <path d="M 299.66338 226.601715 
L 299.66338 58.68 
" style="fill: none; stroke: #000000; stroke-width: 0.8; stroke-linejoin: miter; stroke-linecap: square"/>
   </g>
   <g id="patch_5">
    <path d="M 299.66338 226.601715 
L 475.873906 226.601715 
" style="fill: none; stroke: #000000; stroke-width: 0.8; stroke-linejoin: miter; stroke-linecap: square"/>
   </g>
   <g id="line2d_18">
    <path d="M 307.672949 131.11723 
L 467.864337 101.709939 
" clip-path="url(#p3e7cc472c0)" style="fill: none; stroke: #b64342; stroke-width: 1.5; stroke-linecap: square"/>
    <defs>
     <path id="m902e3165a6" d="M 0 2.5 
C 0.663008 2.5 1.29895 2.236584 1.767767 1.767767 
C 2.236584 1.29895 2.5 0.663008 2.5 0 
C 2.5 -0.663008 2.236584 -1.29895 1.767767 -1.767767 
C 1.29895 -2.236584 0.663008 -2.5 0 -2.5 
C -0.663008 -2.5 -1.29895 -2.236584 -1.767767 -1.767767 
C -2.236584 -1.29895 -2.5 -0.663008 -2.5 0 
C -2.5 0.663008 -2.236584 1.29895 -1.767767 1.767767 
C -1.29895 2.236584 -0.663008 2.5 0 2.5 
z
" style="stroke: #b64342"/>
    </defs>
    <g clip-path="url(#p3e7cc472c0)">
     <use xlink:href="#m902e3165a6" x="307.672949" y="131.11723" style="fill: #b64342; stroke: #b64342"/>
     <use xlink:href="#m902e3165a6" x="467.864337" y="101.709939" style="fill: #b64342; stroke: #b64342"/>
    </g>
   </g>
   <g id="text_18">
    <text style="font: 700 10px 'Microsoft YaHei', 'SimHei', 'Arial', 'DejaVu Sans', 'Liberation Sans', sans-serif; text-anchor: start" x="285.566538" y="52.835628" transform="rotate(-0 285.566538 52.835628)">b</text>
   </g>
   <g id="text_19">
    <text style="font: 700 7px 'Microsoft YaHei', 'SimHei', 'Arial', 'DejaVu Sans', 'Liberation Sans', sans-serif; text-anchor: middle" x="387.768643" y="54.68" transform="rotate(-0 387.768643 54.68)">Sentiment evolution along propagation chain</text>
   </g>
   <g id="legend_2">
    <g id="line2d_19">
     <path d="M 304.61338 66.101563 
L 310.11338 66.101563 
L 315.61338 66.101563 
" style="fill: none; stroke: #b64342; stroke-width: 1.5; stroke-linecap: square"/>
     <g>
      <use xlink:href="#m902e3165a6" x="310.11338" y="66.101563" style="fill: #b64342; stroke: #b64342"/>
     </g>
    </g>
    <g id="text_20">
     <text style="font: 5.5px 'Microsoft YaHei', 'SimHei', 'Arial', 'DejaVu Sans', 'Liberation Sans', sans-serif; text-anchor: start" x="320.01338" y="68.026563" transform="rotate(-0 320.01338 68.026563)">Polarity (−1 to +1)</text>
    </g>
    <g id="line2d_20">
     <path d="M 304.61338 74.647187 
L 310.11338 74.647187 
L 315.61338 74.647187 
" style="fill: none; stroke-dasharray: 4.44,1.92; stroke-dashoffset: 0; stroke: #0f4d92; stroke-width: 1.2"/>
     <defs>
      <path id="m1ff508a62d" d="M -2 2 
L 2 2 
L 2 -2 
L -2 -2 
z
" style="stroke: #0f4d92; stroke-linejoin: miter"/>
     </defs>
     <g>
      <use xlink:href="#m1ff508a62d" x="310.11338" y="74.647187" style="fill: #0f4d92; stroke: #0f4d92; stroke-linejoin: miter"/>
     </g>
    </g>
    <g id="text_21">
     <text style="font: 5.5px 'Microsoft YaHei', 'SimHei', 'Arial', 'DejaVu Sans', 'Liberation Sans', sans-serif; text-anchor: start" x="320.01338" y="76.572187" transform="rotate(-0 320.01338 76.572187)">Arousal (0 to 1)</text>
    </g>
   </g>
  </g>
  <g id="axes_3">
   <g id="patch_6">
    <path d="M 74.113906 419.04 
L 250.324433 419.04 
L 250.324433 276.306542 
L 74.113906 276.306542 
z
" style="fill: #ffffff"/>
   </g>
   <g id="patch_7">
    <path d="M 74.113906 298.479422 
L 227.340451 298.479422 
L 227.340451 282.794427 
L 74.113906 282.794427 
z
" clip-path="url(#p1bb7fa8f3c)" style="fill: #0f4d92; stroke: #ffd700; stroke-width: 1.2; stroke-linejoin: miter"/>
   </g>
   <g id="patch_8">
    <path d="M 74.113906 326.997596 
L 227.340451 326.997596 
L 227.340451 311.3126 
L 74.113906 311.3126 
z
" clip-path="url(#p1bb7fa8f3c)" style="fill: #0f4d92; stroke: #ffffff; stroke-width: 0.3; stroke-linejoin: miter"/>
   </g>
   <g id="patch_9">
    <path d="M 74.113906 355.515769 
L 227.340451 355.515769 
L 227.340451 339.830774 
L 74.113906 339.830774 
z
" clip-path="url(#p1bb7fa8f3c)" style="fill: #0f4d92; stroke: #ffffff; stroke-width: 0.3; stroke-linejoin: miter"/>
   </g>
   <g id="patch_10">
    <path d="M 74.113906 384.033942 
L 227.340451 384.033942 
L 227.340451 368.348947 
L 74.113906 368.348947 
z
" clip-path="url(#p1bb7fa8f3c)" style="fill: #0f4d92; stroke: #ffffff; stroke-width: 0.3; stroke-linejoin: miter"/>
   </g>
   <g id="patch_11">
    <path d="M 74.113906 412.552116 
L 227.340451 412.552116 
L 227.340451 396.86712 
L 74.113906 396.86712 
z
" clip-path="url(#p1bb7fa8f3c)" style="fill: #0f4d92; stroke: #ffffff; stroke-width: 0.3; stroke-linejoin: miter"/>
   </g>
   <g id="matplotlib.axis_5">
    <g id="xtick_3">
     <g id="line2d_21">
      <g>
       <use xlink:href="#md46b49483e" x="74.113906" y="419.04" style="stroke: #000000; stroke-width: 0.8"/>
      </g>
     </g>
     <g id="text_22">
      <text style="font: 6.5px 'Microsoft YaHei', 'SimHei', 'Arial', 'DejaVu Sans', 'Liberation Sans', sans-serif; text-anchor: middle" x="74.113906" y="431.235937" transform="rotate(-0 74.113906 431.235937)">0.0</text>
     </g>
    </g>
    <g id="xtick_4">
     <g id="line2d_22">
      <g>
       <use xlink:href="#md46b49483e" x="109.956373" y="419.04" style="stroke: #000000; stroke-width: 0.8"/>
      </g>
     </g>
     <g id="text_23">
      <text style="font: 6.5px 'Microsoft YaHei', 'SimHei', 'Arial', 'DejaVu Sans', 'Liberation Sans', sans-serif; text-anchor: middle" x="109.956373" y="431.235937" transform="rotate(-0 109.956373 431.235937)">0.2</text>
     </g>
    </g>
    <g id="xtick_5">
     <g id="line2d_23">
      <g>
       <use xlink:href="#md46b49483e" x="145.798839" y="419.04" style="stroke: #000000; stroke-width: 0.8"/>
      </g>
     </g>
     <g id="text_24">
      <text style="font: 6.5px 'Microsoft YaHei', 'SimHei', 'Arial', 'DejaVu Sans', 'Liberation Sans', sans-serif; text-anchor: middle" x="145.798839" y="431.235937" transform="rotate(-0 145.798839 431.235937)">0.4</text>
     </g>
    </g>
    <g id="xtick_6">
     <g id="line2d_24">
      <g>
       <use xlink:href="#md46b49483e" x="181.641306" y="419.04" style="stroke: #000000; stroke-width: 0.8"/>
      </g>
     </g>
     <g id="text_25">
      <text style="font: 6.5px 'Microsoft YaHei', 'SimHei', 'Arial', 'DejaVu Sans', 'Liberation Sans', sans-serif; text-anchor: middle" x="181.641306" y="431.235937" transform="rotate(-0 181.641306 431.235937)">0.6</text>
     </g>
    </g>
    <g id="xtick_7">
     <g id="line2d_25">
      <g>
       <use xlink:href="#md46b49483e" x="217.483773" y="419.04" style="stroke: #000000; stroke-width: 0.8"/>
      </g>
     </g>
     <g id="text_26">
      <text style="font: 6.5px 'Microsoft YaHei', 'SimHei', 'Arial', 'DejaVu Sans', 'Liberation Sans', sans-serif; text-anchor: middle" x="217.483773" y="431.235937" transform="rotate(-0 217.483773 431.235937)">0.8</text>
     </g>
    </g>
    <g id="text_27">
     <text style="font: 7px 'Microsoft YaHei', 'SimHei', 'Arial', 'DejaVu Sans', 'Liberation Sans', sans-serif; text-anchor: middle" x="162.219169" y="442.447422" transform="rotate(-0 162.219169 442.447422)">Confidence score</text>
    </g>
   </g>
   <g id="matplotlib.axis_6">
    <g id="ytick_10">
     <g id="line2d_26">
      <defs>
       <path id="mbf7ba6a0d9" d="M 0 0 
L -3.5 0 
" style="stroke: #000000; stroke-width: 0.8"/>
      </defs>
      <g>
       <use xlink:href="#mbf7ba6a0d9" x="74.113906" y="290.636925" style="stroke: #000000; stroke-width: 0.8"/>
      </g>
     </g>
     <g id="text_28">
      <text style="font: 5.5px 'Microsoft YaHei', 'SimHei', 'Arial', 'DejaVu Sans', 'Liberation Sans', sans-serif; text-anchor: end" x="67.113906" y="292.835206" transform="rotate(-0 67.113906 292.835206)">[weibo] 530354351715</text>
     </g>
    </g>
    <g id="ytick_11">
     <g id="line2d_27">
      <g>
       <use xlink:href="#mbf7ba6a0d9" x="74.113906" y="319.155098" style="stroke: #000000; stroke-width: 0.8"/>
      </g>
     </g>
     <g id="text_29">
      <text style="font: 5.5px 'Microsoft YaHei', 'SimHei', 'Arial', 'DejaVu Sans', 'Liberation Sans', sans-serif; text-anchor: end" x="67.113906" y="321.353379" transform="rotate(-0 67.113906 321.353379)">[weibo] 530403265137</text>
     </g>
    </g>
    <g id="ytick_12">
     <g id="line2d_28">
      <g>
       <use xlink:href="#mbf7ba6a0d9" x="74.113906" y="347.673271" style="stroke: #000000; stroke-width: 0.8"/>
      </g>
     </g>
     <g id="text_30">
      <text style="font: 5.5px 'Microsoft YaHei', 'SimHei', 'Arial', 'DejaVu Sans', 'Liberation Sans', sans-serif; text-anchor: end" x="67.113906" y="349.871552" transform="rotate(-0 67.113906 349.871552)">[weibo] 530404935834</text>
     </g>
    </g>
    <g id="ytick_13">
     <g id="line2d_29">
      <g>
       <use xlink:href="#mbf7ba6a0d9" x="74.113906" y="376.191445" style="stroke: #000000; stroke-width: 0.8"/>
      </g>
     </g>
     <g id="text_31">
      <text style="font: 5.5px 'Microsoft YaHei', 'SimHei', 'Arial', 'DejaVu Sans', 'Liberation Sans', sans-serif; text-anchor: end" x="67.113906" y="378.389726" transform="rotate(-0 67.113906 378.389726)">[weibo] 530405276726</text>
     </g>
    </g>
    <g id="ytick_14">
     <g id="line2d_30">
      <g>
       <use xlink:href="#mbf7ba6a0d9" x="74.113906" y="404.709618" style="stroke: #000000; stroke-width: 0.8"/>
      </g>
     </g>
     <g id="text_32">
      <text style="font: 5.5px 'Microsoft YaHei', 'SimHei', 'Arial', 'DejaVu Sans', 'Liberation Sans', sans-serif; text-anchor: end" x="67.113906" y="406.907899" transform="rotate(-0 67.113906 406.907899)">[weibo] 530405560366</text>
     </g>
    </g>
   </g>
   <g id="line2d_31">
    <path d="M 163.720073 419.04 
L 163.720073 276.306542 
" clip-path="url(#p1bb7fa8f3c)" style="fill: none; stroke-dasharray: 1.85,0.8; stroke-dashoffset: 0; stroke: #cfcece; stroke-opacity: 0.5; stroke-width: 0.5"/>
   </g>
   <g id="patch_12">
    <path d="M 74.113906 419.04 
L 74.113906 276.306542 
" style="fill: none; stroke: #000000; stroke-width: 0.8; stroke-linejoin: miter; stroke-linecap: square"/>
   </g>
   <g id="patch_13">
    <path d="M 74.113906 419.04 
L 250.324433 419.04 
" style="fill: none; stroke: #000000; stroke-width: 0.8; stroke-linejoin: miter; stroke-linecap: square"/>
   </g>
   <g id="text_33">
    <text style="fill: #4d4d4d; font: 5.5px 'Microsoft YaHei', 'SimHei', 'Arial', 'DejaVu Sans', 'Liberation Sans', sans-serif; text-anchor: start" x="229.132574" y="292.151573" transform="rotate(-0 229.132574 292.151573)">0.855</text>
   </g>
   <g id="text_34">
    <text style="fill: #4d4d4d; font: 5.5px 'Microsoft YaHei', 'SimHei', 'Arial', 'DejaVu Sans', 'Liberation Sans', sans-serif; text-anchor: start" x="229.132574" y="320.669746" transform="rotate(-0 229.132574 320.669746)">0.855</text>
   </g>
   <g id="text_35">
    <text style="fill: #4d4d4d; font: 5.5px 'Microsoft YaHei', 'SimHei', 'Arial', 'DejaVu Sans', 'Liberation Sans', sans-serif; text-anchor: start" x="229.132574" y="349.18792" transform="rotate(-0 229.132574 349.18792)">0.855</text>
   </g>
   <g id="text_36">
    <text style="fill: #4d4d4d; font: 5.5px 'Microsoft YaHei', 'SimHei', 'Arial', 'DejaVu Sans', 'Liberation Sans', sans-serif; text-anchor: start" x="229.132574" y="377.706093" transform="rotate(-0 229.132574 377.706093)">0.855</text>
   </g>
   <g id="text_37">
    <text style="fill: #4d4d4d; font: 5.5px 'Microsoft YaHei', 'SimHei', 'Arial', 'DejaVu Sans', 'Liberation Sans', sans-serif; text-anchor: start" x="229.132574" y="406.224266" transform="rotate(-0 229.132574 406.224266)">0.855</text>
   </g>
   <g id="text_38">
    <text style="font: 700 10px 'Microsoft YaHei', 'SimHei', 'Arial', 'DejaVu Sans', 'Liberation Sans', sans-serif; text-anchor: start" x="60.017064" y="270.965936" transform="rotate(-0 60.017064 270.965936)">c</text>
   </g>
   <g id="text_39">
    <text style="font: 700 7px 'Microsoft YaHei', 'SimHei', 'Arial', 'DejaVu Sans', 'Liberation Sans', sans-serif; text-anchor: middle" x="162.219169" y="272.306542" transform="rotate(-0 162.219169 272.306542)">Source candidate ranking</text>
   </g>
  </g>
  <g id="axes_4">
   <g id="patch_14">
    <path d="M 299.66338 419.04 
L 475.873906 419.04 
L 475.873906 276.306542 
L 299.66338 276.306542 
z
" style="fill: #ffffff"/>
   </g>
   <g id="patch_15">
    <path d="M 307.672949 365.514953 
L 387.768643 365.514953 
L 387.768643 334.595318 
L 307.672949 334.595318 
z
" clip-path="url(#pbaebff13d3)" style="fill: #0f4d92; opacity: 0.85; stroke: #ffffff; stroke-width: 0.3; stroke-linejoin: miter"/>
   </g>
   <g id="patch_16">
    <path d="M 387.768643 365.514953 
L 467.864337 365.514953 
L 467.864337 291.775281 
L 387.768643 291.775281 
z
" clip-path="url(#pbaebff13d3)" style="fill: url(#h75bf703158); opacity: 0.4; stroke: #ffffff; stroke-width: 0.3; stroke-linejoin: miter"/>
   </g>
   <g id="matplotlib.axis_7">
    <g id="xtick_8">
     <g id="line2d_32">
      <g>
       <use xlink:href="#md46b49483e" x="387.768643" y="419.04" style="stroke: #000000; stroke-width: 0.8"/>
      </g>
     </g>
     <g id="text_40">
      <text style="font: 6px 'Microsoft YaHei', 'SimHei', 'Arial', 'DejaVu Sans', 'Liberation Sans', sans-serif; text-anchor: middle" x="387.768643" y="430.83625" transform="rotate(-0 387.768643 430.83625)">weibo</text>
     </g>
    </g>
   </g>
   <g id="matplotlib.axis_8">
    <g id="ytick_15">
     <g id="line2d_33">
      <g>
       <use xlink:href="#mbf7ba6a0d9" x="299.66338" y="419.04" style="stroke: #000000; stroke-width: 0.8"/>
      </g>
     </g>
     <g id="text_41">
      <text style="font: 6.5px 'Microsoft YaHei', 'SimHei', 'Arial', 'DejaVu Sans', 'Liberation Sans', sans-serif; text-anchor: end" x="292.66338" y="421.637969" transform="rotate(-0 292.66338 421.637969)">−0.6</text>
     </g>
    </g>
    <g id="ytick_16">
     <g id="line2d_34">
      <g>
       <use xlink:href="#mbf7ba6a0d9" x="299.66338" y="401.198318" style="stroke: #000000; stroke-width: 0.8"/>
      </g>
     </g>
     <g id="text_42">
      <text style="font: 6.5px 'Microsoft YaHei', 'SimHei', 'Arial', 'DejaVu Sans', 'Liberation Sans', sans-serif; text-anchor: end" x="292.66338" y="403.796287" transform="rotate(-0 292.66338 403.796287)">−0.4</text>
     </g>
    </g>
    <g id="ytick_17">
     <g id="line2d_35">
      <g>
       <use xlink:href="#mbf7ba6a0d9" x="299.66338" y="383.356636" style="stroke: #000000; stroke-width: 0.8"/>
      </g>
     </g>
     <g id="text_43">
      <text style="font: 6.5px 'Microsoft YaHei', 'SimHei', 'Arial', 'DejaVu Sans', 'Liberation Sans', sans-serif; text-anchor: end" x="292.66338" y="385.954604" transform="rotate(-0 292.66338 385.954604)">−0.2</text>
     </g>
    </g>
    <g id="ytick_18">
     <g id="line2d_36">
      <g>
       <use xlink:href="#mbf7ba6a0d9" x="299.66338" y="365.514953" style="stroke: #000000; stroke-width: 0.8"/>
      </g>
     </g>
     <g id="text_44">
      <text style="font: 6.5px 'Microsoft YaHei', 'SimHei', 'Arial', 'DejaVu Sans', 'Liberation Sans', sans-serif; text-anchor: end" x="292.66338" y="368.112922" transform="rotate(-0 292.66338 368.112922)">0.0</text>
     </g>
    </g>
    <g id="ytick_19">
     <g id="line2d_37">
      <g>
       <use xlink:href="#mbf7ba6a0d9" x="299.66338" y="347.673271" style="stroke: #000000; stroke-width: 0.8"/>
      </g>
     </g>
     <g id="text_45">
      <text style="font: 6.5px 'Microsoft YaHei', 'SimHei', 'Arial', 'DejaVu Sans', 'Liberation Sans', sans-serif; text-anchor: end" x="292.66338" y="350.27124" transform="rotate(-0 292.66338 350.27124)">0.2</text>
     </g>
    </g>
    <g id="ytick_20">
     <g id="line2d_38">
      <g>
       <use xlink:href="#mbf7ba6a0d9" x="299.66338" y="329.831589" style="stroke: #000000; stroke-width: 0.8"/>
      </g>
     </g>
     <g id="text_46">
      <text style="font: 6.5px 'Microsoft YaHei', 'SimHei', 'Arial', 'DejaVu Sans', 'Liberation Sans', sans-serif; text-anchor: end" x="292.66338" y="332.429558" transform="rotate(-0 292.66338 332.429558)">0.4</text>
     </g>
    </g>
    <g id="ytick_21">
     <g id="line2d_39">
      <g>
       <use xlink:href="#mbf7ba6a0d9" x="299.66338" y="311.989907" style="stroke: #000000; stroke-width: 0.8"/>
      </g>
     </g>
     <g id="text_47">
      <text style="font: 6.5px 'Microsoft YaHei', 'SimHei', 'Arial', 'DejaVu Sans', 'Liberation Sans', sans-serif; text-anchor: end" x="292.66338" y="314.587876" transform="rotate(-0 292.66338 314.587876)">0.6</text>
     </g>
    </g>
    <g id="ytick_22">
     <g id="line2d_40">
      <g>
       <use xlink:href="#mbf7ba6a0d9" x="299.66338" y="294.148225" style="stroke: #000000; stroke-width: 0.8"/>
      </g>
     </g>
     <g id="text_48">
      <text style="font: 6.5px 'Microsoft YaHei', 'SimHei', 'Arial', 'DejaVu Sans', 'Liberation Sans', sans-serif; text-anchor: end" x="292.66338" y="296.746193" transform="rotate(-0 292.66338 296.746193)">0.8</text>
     </g>
    </g>
    <g id="ytick_23">
     <g id="line2d_41">
      <g>
       <use xlink:href="#mbf7ba6a0d9" x="299.66338" y="276.306542" style="stroke: #000000; stroke-width: 0.8"/>
      </g>
     </g>
     <g id="text_49">
      <text style="font: 6.5px 'Microsoft YaHei', 'SimHei', 'Arial', 'DejaVu Sans', 'Liberation Sans', sans-serif; text-anchor: end" x="292.66338" y="278.904511" transform="rotate(-0 292.66338 278.904511)">1.0</text>
     </g>
    </g>
    <g id="text_50">
     <text style="font: 7px 'Microsoft YaHei', 'SimHei', 'Arial', 'DejaVu Sans', 'Liberation Sans', sans-serif; text-anchor: middle" x="272.913692" y="347.673271" transform="rotate(-90 272.913692 347.673271)">Score</text>
    </g>
   </g>
   <g id="LineCollection_1">
    <path d="M 347.720796 375.738237 
L 347.720796 293.452399 
" clip-path="url(#pbaebff13d3)" style="fill: none; stroke: #4d4d4d; stroke-width: 0.6"/>
   </g>
   <g id="line2d_42">
    <defs>
     <path id="m475ea7d902" d="M 2 0 
L -2 -0 
" style="stroke: #4d4d4d"/>
    </defs>
    <g clip-path="url(#pbaebff13d3)">
     <use xlink:href="#m475ea7d902" x="347.720796" y="375.738237" style="fill: #4d4d4d; stroke: #4d4d4d"/>
    </g>
   </g>
   <g id="line2d_43">
    <g clip-path="url(#pbaebff13d3)">
     <use xlink:href="#m475ea7d902" x="347.720796" y="293.452399" style="fill: #4d4d4d; stroke: #4d4d4d"/>
    </g>
   </g>
   <g id="line2d_44">
    <path d="M 299.66338 365.514953 
L 475.873906 365.514953 
" clip-path="url(#pbaebff13d3)" style="fill: none; stroke: #cfcece; stroke-width: 0.5; stroke-linecap: square"/>
   </g>
   <g id="patch_17">
    <path d="M 299.66338 419.04 
L 299.66338 276.306542 
" style="fill: none; stroke: #000000; stroke-width: 0.8; stroke-linejoin: miter; stroke-linecap: square"/>
   </g>
   <g id="patch_18">
    <path d="M 299.66338 419.04 
L 475.873906 419.04 
" style="fill: none; stroke: #000000; stroke-width: 0.8; stroke-linejoin: miter; stroke-linecap: square"/>
   </g>
   <g id="text_51">
    <text style="fill: #4d4d4d; font: 5px 'Microsoft YaHei', 'SimHei', 'Arial', 'DejaVu Sans', 'Liberation Sans', sans-serif; text-anchor: middle" x="347.720796" y="331.026982" transform="rotate(-0 347.720796 331.026982)">n=52</text>
   </g>
   <g id="text_52">
    <text style="font: 700 10px 'Microsoft YaHei', 'SimHei', 'Arial', 'DejaVu Sans', 'Liberation Sans', sans-serif; text-anchor: start" x="285.566538" y="270.965936" transform="rotate(-0 285.566538 270.965936)">d</text>
   </g>
   <g id="text_53">
    <text style="font: 700 7px 'Microsoft YaHei', 'SimHei', 'Arial', 'DejaVu Sans', 'Liberation Sans', sans-serif; text-anchor: middle" x="387.768643" y="272.306542" transform="rotate(-0 387.768643 272.306542)">Cross-platform sentiment comparison</text>
   </g>
   <g id="legend_3">
    <g id="patch_19">
     <path d="M 435.692969 285.653105 
L 446.692969 285.653105 
L 446.692969 281.803105 
L 435.692969 281.803105 
z
" style="fill: #4d4d4d; opacity: 0.7"/>
    </g>
    <g id="text_54">
     <text style="font: 5.5px 'Microsoft YaHei', 'SimHei', 'Arial', 'DejaVu Sans', 'Liberation Sans', sans-serif; text-anchor: start" x="451.092969" y="285.653105" transform="rotate(-0 451.092969 285.653105)">Polarity</text>
    </g>
    <g id="patch_20">
     <path d="M 435.692969 294.19873 
L 446.692969 294.19873 
L 446.692969 290.34873 
L 435.692969 290.34873 
z
" style="fill: url(#h10faf4039c); opacity: 0.3"/>
    </g>
    <g id="text_55">
     <text style="font: 5.5px 'Microsoft YaHei', 'SimHei', 'Arial', 'DejaVu Sans', 'Liberation Sans', sans-serif; text-anchor: start" x="451.092969" y="294.19873" transform="rotate(-0 451.092969 294.19873)">Arousal</text>
    </g>
   </g>
  </g>
  <g id="axes_5">
   <g id="matplotlib.axis_9">
    <g id="ytick_24">
     <g id="line2d_45">
      <defs>
       <path id="m9064d5de50" d="M 0 0 
L 3.5 0 
" style="stroke: #0f4d92; stroke-width: 0.8"/>
      </defs>
      <g>
       <use xlink:href="#m9064d5de50" x="475.873906" y="226.601715" style="fill: #0f4d92; stroke: #0f4d92; stroke-width: 0.8"/>
      </g>
     </g>
     <g id="text_56">
      <text style="fill: #0f4d92; font: 6.5px 'Microsoft YaHei', 'SimHei', 'Arial', 'DejaVu Sans', 'Liberation Sans', sans-serif; text-anchor: start" x="482.873906" y="229.199684" transform="rotate(-0 482.873906 229.199684)">0.4</text>
     </g>
    </g>
    <g id="ytick_25">
     <g id="line2d_46">
      <g>
       <use xlink:href="#m9064d5de50" x="475.873906" y="198.614762" style="fill: #0f4d92; stroke: #0f4d92; stroke-width: 0.8"/>
      </g>
     </g>
     <g id="text_57">
      <text style="fill: #0f4d92; font: 6.5px 'Microsoft YaHei', 'SimHei', 'Arial', 'DejaVu Sans', 'Liberation Sans', sans-serif; text-anchor: start" x="482.873906" y="201.212731" transform="rotate(-0 482.873906 201.212731)">0.5</text>
     </g>
    </g>
    <g id="ytick_26">
     <g id="line2d_47">
      <g>
       <use xlink:href="#m9064d5de50" x="475.873906" y="170.62781" style="fill: #0f4d92; stroke: #0f4d92; stroke-width: 0.8"/>
      </g>
     </g>
     <g id="text_58">
      <text style="fill: #0f4d92; font: 6.5px 'Microsoft YaHei', 'SimHei', 'Arial', 'DejaVu Sans', 'Liberation Sans', sans-serif; text-anchor: start" x="482.873906" y="173.225779" transform="rotate(-0 482.873906 173.225779)">0.6</text>
     </g>
    </g>
    <g id="ytick_27">
     <g id="line2d_48">
      <g>
       <use xlink:href="#m9064d5de50" x="475.873906" y="142.640857" style="fill: #0f4d92; stroke: #0f4d92; stroke-width: 0.8"/>
      </g>
     </g>
     <g id="text_59">
      <text style="fill: #0f4d92; font: 6.5px 'Microsoft YaHei', 'SimHei', 'Arial', 'DejaVu Sans', 'Liberation Sans', sans-serif; text-anchor: start" x="482.873906" y="145.238826" transform="rotate(-0 482.873906 145.238826)">0.7</text>
     </g>
    </g>
    <g id="ytick_28">
     <g id="line2d_49">
      <g>
       <use xlink:href="#m9064d5de50" x="475.873906" y="114.653905" style="fill: #0f4d92; stroke: #0f4d92; stroke-width: 0.8"/>
      </g>
     </g>
     <g id="text_60">
      <text style="fill: #0f4d92; font: 6.5px 'Microsoft YaHei', 'SimHei', 'Arial', 'DejaVu Sans', 'Liberation Sans', sans-serif; text-anchor: start" x="482.873906" y="117.251874" transform="rotate(-0 482.873906 117.251874)">0.8</text>
     </g>
    </g>
    <g id="ytick_29">
     <g id="line2d_50">
      <g>
       <use xlink:href="#m9064d5de50" x="475.873906" y="86.666952" style="fill: #0f4d92; stroke: #0f4d92; stroke-width: 0.8"/>
      </g>
     </g>
     <g id="text_61">
      <text style="fill: #0f4d92; font: 6.5px 'Microsoft YaHei', 'SimHei', 'Arial', 'DejaVu Sans', 'Liberation Sans', sans-serif; text-anchor: start" x="482.873906" y="89.264921" transform="rotate(-0 482.873906 89.264921)">0.9</text>
     </g>
    </g>
    <g id="ytick_30">
     <g id="line2d_51">
      <g>
       <use xlink:href="#m9064d5de50" x="475.873906" y="58.68" style="fill: #0f4d92; stroke: #0f4d92; stroke-width: 0.8"/>
      </g>
     </g>
     <g id="text_62">
      <text style="fill: #0f4d92; font: 6.5px 'Microsoft YaHei', 'SimHei', 'Arial', 'DejaVu Sans', 'Liberation Sans', sans-serif; text-anchor: start" x="482.873906" y="61.277969" transform="rotate(-0 482.873906 61.277969)">1.0</text>
     </g>
    </g>
    <g id="text_63">
     <text style="fill: #0f4d92; font: 7px 'Microsoft YaHei', 'SimHei', 'Arial', 'DejaVu Sans', 'Liberation Sans', sans-serif; text-anchor: middle" x="501.657891" y="142.640857" transform="rotate(-90 501.657891 142.640857)">Arousal intensity</text>
    </g>
   </g>
   <g id="patch_21">
    <path d="M 299.66338 226.601715 
L 299.66338 58.68 
" style="fill: none; stroke: #000000; stroke-width: 0.8; stroke-linejoin: miter; stroke-linecap: square"/>
   </g>
   <g id="patch_22">
    <path d="M 299.66338 226.601715 
L 475.873906 226.601715 
" style="fill: none; stroke: #000000; stroke-width: 0.8; stroke-linejoin: miter; stroke-linecap: square"/>
   </g>
   <g id="line2d_52">
    <path d="M 307.672949 144.432022 
L 467.864337 95.398882 
" clip-path="url(#p3e7cc472c0)" style="fill: none; stroke-dasharray: 4.44,1.92; stroke-dashoffset: 0; stroke: #0f4d92; stroke-width: 1.2"/>
    <g clip-path="url(#p3e7cc472c0)">
     <use xlink:href="#m1ff508a62d" x="307.672949" y="144.432022" style="fill: #0f4d92; stroke: #0f4d92; stroke-linejoin: miter"/>
     <use xlink:href="#m1ff508a62d" x="467.864337" y="95.398882" style="fill: #0f4d92; stroke: #0f4d92; stroke-linejoin: miter"/>
    </g>
   </g>
  </g>
  <g id="text_64">
   <text style="font: 700 9px 'Microsoft YaHei', 'SimHei', 'Arial', 'DejaVu Sans', 'Liberation Sans', sans-serif; text-anchor: start" x="19.681906" y="14.363437" transform="rotate(-0 19.681906 14.363437)">Event propagation trace</text>
  </g>
 </g>
 <defs>
  <clipPath id="p59c1e2b4c5">
   <rect x="74.113906" y="58.68" width="176.210526" height="167.921715"/>
  </clipPath>
  <clipPath id="p3e7cc472c0">
   <rect x="299.66338" y="58.68" width="176.210526" height="167.921715"/>
  </clipPath>
  <clipPath id="p1bb7fa8f3c">
   <rect x="74.113906" y="276.306542" width="176.210526" height="142.733458"/>
  </clipPath>
  <clipPath id="pbaebff13d3">
   <rect x="299.66338" y="276.306542" width="176.210526" height="142.733458"/>
  </clipPath>
 </defs>
 <defs>
  <pattern id="h75bf703158" patternUnits="userSpaceOnUse" x="0" y="0" width="72" height="72">
   <rect x="0" y="0" width="73" height="73" fill="#0f4d92"/>
   <path d="M -36 36 
L 36 -36 
M -32 40 
L 40 -32 
M -28 44 
L 44 -28 
M -24 48 
L 48 -24 
M -20 52 
L 52 -20 
M -16 56 
L 56 -16 
M -12 60 
L 60 -12 
M -8 64 
L 64 -8 
M -4 68 
L 68 -4 
M 0 72 
L 72 0 
M 4 76 
L 76 4 
M 8 80 
L 80 8 
M 12 84 
L 84 12 
M 16 88 
L 88 16 
M 20 92 
L 92 20 
M 24 96 
L 96 24 
M 28 100 
L 100 28 
M 32 104 
L 104 32 
M 36 108 
L 108 36 
" style="fill: #ffffff; stroke: #ffffff; stroke-width: 1.0; stroke-linecap: butt; stroke-linejoin: miter; stroke-opacity: 0.4"/>
  </pattern>
  <pattern id="h10faf4039c" patternUnits="userSpaceOnUse" x="0" y="0" width="72" height="72">
   <rect x="0" y="0" width="73" height="73" fill="#4d4d4d"/>
   <path d="M -36 36 
L 36 -36 
M -32 40 
L 40 -32 
M -28 44 
L 44 -28 
M -24 48 
L 48 -24 
M -20 52 
L 52 -20 
M -16 56 
L 56 -16 
M -12 60 
L 60 -12 
M -8 64 
L 64 -8 
M -4 68 
L 68 -4 
M 0 72 
L 72 0 
M 4 76 
L 76 4 
M 8 80 
L 80 8 
M 12 84 
L 84 12 
M 16 88 
L 88 16 
M 20 92 
L 92 20 
M 24 96 
L 96 24 
M 28 100 
L 100 28 
M 32 104 
L 104 32 
M 36 108 
L 108 36 
" style="fill: #000000; stroke: #000000; stroke-width: 1.0; stroke-linecap: butt; stroke-linejoin: miter"/>
  </pattern>
 </defs>
</svg>
